<svg width="25" height="25" viewBox="0 0 25 25" fill="none" xmlns="http://www.w3.org/2000/svg">
<path opacity="0.3" d="M12.8936 10.4949C14.0534 10.4949 14.9936 9.55472 14.9936 8.39492C14.9936 7.23512 14.0534 6.29492 12.8936 6.29492C11.7338 6.29492 10.7936 7.23512 10.7936 8.39492C10.7936 9.55472 11.7338 10.4949 12.8936 10.4949Z" fill="#00687A"/>
<path opacity="0.3" d="M12.8936 15.2949C9.92358 15.2949 6.79358 16.7549 6.79358 17.3949V18.4949H18.9936V17.3949C18.9936 16.7549 15.8636 15.2949 12.8936 15.2949Z" fill="#00687A"/>
<path d="M12.8936 13.3945C10.2236 13.3945 4.89355 14.7345 4.89355 17.3945V20.3945H20.8936V17.3945C20.8936 14.7345 15.5636 13.3945 12.8936 13.3945ZM18.9936 18.4945H6.79355V17.3945C6.79355 16.7545 9.92355 15.2945 12.8936 15.2945C15.8636 15.2945 18.9936 16.7545 18.9936 17.3945V18.4945ZM12.8936 12.3945C15.1036 12.3945 16.8936 10.6045 16.8936 8.39453C16.8936 6.18453 15.1036 4.39453 12.8936 4.39453C10.6836 4.39453 8.89355 6.18453 8.89355 8.39453C8.89355 10.6045 10.6836 12.3945 12.8936 12.3945ZM12.8936 6.29453C14.0536 6.29453 14.9936 7.23453 14.9936 8.39453C14.9936 9.55453 14.0536 10.4945 12.8936 10.4945C11.7336 10.4945 10.7936 9.55453 10.7936 8.39453C10.7936 7.23453 11.7336 6.29453 12.8936 6.29453Z" fill="#00687A"/>
</svg>
